<svg xmlns="http://www.w3.org/2000/svg" viewBox="0 0 56 55" width="56" height="55" preserveAspectRatio="xMidYMid meet" style="width: 100%; height: 100%; transform: translate3d(0px, 0px, 0px); content-visibility: visible;"><defs><clipPath id="__lottie_element_2"><rect width="56" height="55" x="0" y="0"></rect></clipPath><clipPath id="__lottie_element_7"><path d="M0,0 L56,0 L56,55 L0,55z"></path></clipPath><clipPath id="__lottie_element_11"><path d="M0,0 L56,0 L56,55 L0,55z"></path></clipPath><mask id="__lottie_element_14" mask-type="alpha"><g transform="matrix(1,0,0,1,0,0)" opacity="1" style="display: block;"><g opacity="1" transform="matrix(1,0,0,1,0,0)"><path fill="rgb(0,0,0)" fill-opacity="0" d=" M56,0 C56,0 56,55 56,55 C56,55 0,55 0,55 C0,55 0,0 0,0 C0,0 56,0 56,0z"></path></g></g></mask><clipPath id="__lottie_element_19"><path d="M0,0 L56,0 L56,55 L0,55z"></path></clipPath><clipPath id="__lottie_element_23"><path d="M0,0 L56,0 L56,55 L0,55z"></path></clipPath><clipPath id="__lottie_element_27"><path d="M0,0 L56,0 L56,55 L0,55z"></path></clipPath><clipPath id="__lottie_element_31"><path d="M0,0 L56,0 L56,55 L0,55z"></path></clipPath><clipPath id="__lottie_element_35"><path d="M0,0 L56,0 L56,55 L0,55z"></path></clipPath><clipPath id="__lottie_element_39"><path d="M0,0 L56,0 L56,55 L0,55z"></path></clipPath><clipPath id="__lottie_element_43"><path d="M0,0 L56,0 L56,55 L0,55z"></path></clipPath><clipPath id="__lottie_element_47"><path d="M0,0 L56,0 L56,55 L0,55z"></path></clipPath><clipPath id="__lottie_element_51"><path d="M0,0 L56,0 L56,55 L0,55z"></path></clipPath><clipPath id="__lottie_element_55"><path d="M0,0 L56,0 L56,55 L0,55z"></path></clipPath><clipPath id="__lottie_element_59"><path d="M0,0 L56,0 L56,55 L0,55z"></path></clipPath><clipPath id="__lottie_element_63"><path d="M0,0 L56,0 L56,55 L0,55z"></path></clipPath><clipPath id="__lottie_element_67"><path d="M0,0 L56,0 L56,55 L0,55z"></path></clipPath><clipPath id="__lottie_element_71"><path d="M0,0 L56,0 L56,55 L0,55z"></path></clipPath><clipPath id="__lottie_element_75"><path d="M0,0 L56,0 L56,55 L0,55z"></path></clipPath><clipPath id="__lottie_element_79"><path d="M0,0 L56,0 L56,55 L0,55z"></path></clipPath><clipPath id="__lottie_element_83"><path d="M0,0 L56,0 L56,55 L0,55z"></path></clipPath></defs><g clip-path="url(#__lottie_element_2)"><g transform="matrix(1,0,0,1,0,0)" opacity="1" style="display: block;"><g opacity="1" transform="matrix(1,0,0,1,0,0)"><path fill="rgb(255,255,255)" fill-opacity="0" d=" M56,0 C56,0 56,55 56,55 C56,55 0,55 0,55 C0,55 0,0 0,0 C0,0 56,0 56,0z"></path></g></g><g clip-path="url(#__lottie_element_7)" transform="matrix(1,0,0,1,0,0)" opacity="1" style="display: block;"><g clip-path="url(#__lottie_element_11)" transform="matrix(1,0,0,1,0,0)" opacity="1" style="display: block;"><g clip-path="url(#__lottie_element_19)" transform="matrix(1,0,0,1,0,0)" opacity="1" style="display: block;"><g transform="matrix(1,0,0,1,31.479999542236328,32)" opacity="1" style="display: block;"><g opacity="1" transform="matrix(1,0,0,1,0,0)"><path fill="rgb(0,0,0)" fill-opacity="0" d=" M0,3.7943990230560303 C0,1.6987978219985962 1.6520581245422363,0 3.690000057220459,0 C5.727941989898682,0 7.380000114440918,1.6987978219985962 7.380000114440918,3.7943990230560303 C7.380000114440918,5.889999866485596 5.727941989898682,3.7943990230560303 3.690000057220459,3.7943990230560303 C1.6520581245422363,3.7943990230560303 0,5.889999866485596 0,3.7943990230560303 C0,3.7943990230560303 0,3.7943990230560303 0,3.7943990230560303z"></path></g></g><g transform="matrix(1,0,0,1,31.479999542236328,32)" opacity="1" style="display: block;"><g opacity="1" transform="matrix(1,0,0,1,0,0)"><path stroke-linecap="round" stroke-linejoin="miter" fill-opacity="0" stroke-miterlimit="4" stroke="rgb(253,215,34)" stroke-opacity="1" stroke-width="1.5" d=" M0,3.7943990230560303 C0,1.6987978219985962 1.6520581245422363,0 3.690000057220459,0 C5.727941989898682,0 7.380000114440918,1.6987978219985962 7.380000114440918,3.7943990230560303 C7.380000114440918,5.889999866485596 5.727941989898682,3.7943990230560303 3.690000057220459,3.7943990230560303 C1.6520581245422363,3.7943990230560303 0,5.889999866485596 0,3.7943990230560303 C0,3.7943990230560303 0,3.7943990230560303 0,3.7943990230560303z"></path></g></g><g transform="matrix(1,0,0,1,0,0)" opacity="1" style="display: block;"><g opacity="1" transform="matrix(1,0,0,1,0,0)"><path fill="rgb(0,0,0)" fill-opacity="0" d=" M56,0 C56,0 56,55 56,55 C56,55 0,55 0,55 C0,55 0,0 0,0 C0,0 56,0 56,0z"></path></g></g></g><g clip-path="url(#__lottie_element_23)" transform="matrix(1,0,0,1,0,0)" opacity="1" style="display: block;"><g transform="matrix(1,0,0,1,24.350000381469727,38.41999816894531)" opacity="1" style="display: block;"><g opacity="1" transform="matrix(1,0,0,1,0,0)"><path fill="rgb(0,0,0)" fill-opacity="0" d=" M3.565000057220459,8.20581340789795 C3.565000057220459,11.0600004196167 0,11.0600004196167 0,8.20581340789795 M3.565000057220459,8.20581340789795 C3.565000057220459,11.0600004196167 7.130000114440918,11.0600004196167 7.130000114440918,8.20581340789795 M3.565000057220459,4.281280517578125 C3.565000057220459,5.2326765060424805 3.565000057220459,7.349556922912598 3.565000057220459,8.20581340789795 M3.565000057220459,4.281280517578125 C4.943235874176025,4.281280517578125 6.060460090637207,4.446649551391602 6.060460090637207,2.864591360092163 C6.060460090637207,1.2825334072113037 4.943235874176025,0 3.565000057220459,0 C2.1867640018463135,0 1.0694400072097778,1.2825334072113037 1.0694400072097778,2.864591360092163 C1.0694400072097778,4.446649551391602 2.1867640018463135,4.281280517578125 3.565000057220459,4.281280517578125 C3.565000057220459,4.281280517578125 3.565000057220459,4.281280517578125 3.565000057220459,4.281280517578125z"></path></g></g><g transform="matrix(1,0,0,1,24.350000381469727,38.41999816894531)" opacity="1" style="display: block;"><g opacity="1" transform="matrix(1,0,0,1,0,0)"><path stroke-linecap="round" stroke-linejoin="miter" fill-opacity="0" stroke-miterlimit="4" stroke="rgb(253,215,34)" stroke-opacity="1" stroke-width="1.5" d=" M3.565000057220459,8.20581340789795 C3.565000057220459,11.0600004196167 0,11.0600004196167 0,8.20581340789795 M3.565000057220459,8.20581340789795 C3.565000057220459,11.0600004196167 7.130000114440918,11.0600004196167 7.130000114440918,8.20581340789795 M3.565000057220459,4.281280517578125 C3.565000057220459,5.2326765060424805 3.565000057220459,7.349556922912598 3.565000057220459,8.20581340789795 M3.565000057220459,4.281280517578125 C4.943235874176025,4.281280517578125 6.060460090637207,4.446649551391602 6.060460090637207,2.864591360092163 C6.060460090637207,1.2825334072113037 4.943235874176025,0 3.565000057220459,0 C2.1867640018463135,0 1.0694400072097778,1.2825334072113037 1.0694400072097778,2.864591360092163 C1.0694400072097778,4.446649551391602 2.1867640018463135,4.281280517578125 3.565000057220459,4.281280517578125 C3.565000057220459,4.281280517578125 3.565000057220459,4.281280517578125 3.565000057220459,4.281280517578125z"></path></g></g><g transform="matrix(1,0,0,1,0,0)" opacity="1" style="display: block;"><g opacity="1" transform="matrix(1,0,0,1,0,0)"><path fill="rgb(0,0,0)" fill-opacity="0" d=" M56,0 C56,0 56,55 56,55 C56,55 0,55 0,55 C0,55 0,0 0,0 C0,0 56,0 56,0z"></path></g></g></g><g clip-path="url(#__lottie_element_27)" transform="matrix(1,0,0,1,0,0)" opacity="1" style="display: block;"><g transform="matrix(1,0,0,1,17.219999313354492,32)" opacity="1" style="display: block;"><g opacity="1" transform="matrix(1,0,0,1,0,0)"><path fill="rgb(0,0,0)" fill-opacity="0" d=" M0,3.7943990230560303 C0,1.6987978219985962 1.6520581245422363,0 3.690000057220459,0 C5.727941989898682,0 7.380000114440918,1.6987978219985962 7.380000114440918,3.7943990230560303 C7.380000114440918,5.889999866485596 5.727941989898682,3.7943990230560303 3.690000057220459,3.7943990230560303 C1.6520581245422363,3.7943990230560303 0,5.889999866485596 0,3.7943990230560303 C0,3.7943990230560303 0,3.7943990230560303 0,3.7943990230560303z"></path></g></g><g transform="matrix(1,0,0,1,17.219999313354492,32)" opacity="1" style="display: block;"><g opacity="1" transform="matrix(1,0,0,1,0,0)"><path stroke-linecap="round" stroke-linejoin="miter" fill-opacity="0" stroke-miterlimit="4" stroke="rgb(253,215,34)" stroke-opacity="1" stroke-width="1.5" d=" M0,3.7943990230560303 C0,1.6987978219985962 1.6520581245422363,0 3.690000057220459,0 C5.727941989898682,0 7.380000114440918,1.6987978219985962 7.380000114440918,3.7943990230560303 C7.380000114440918,5.889999866485596 5.727941989898682,3.7943990230560303 3.690000057220459,3.7943990230560303 C1.6520581245422363,3.7943990230560303 0,5.889999866485596 0,3.7943990230560303 C0,3.7943990230560303 0,3.7943990230560303 0,3.7943990230560303z"></path></g></g><g transform="matrix(1,0,0,1,0,0)" opacity="1" style="display: block;"><g opacity="1" transform="matrix(1,0,0,1,0,0)"><path fill="rgb(0,0,0)" fill-opacity="0" d=" M56,0 C56,0 56,55 56,55 C56,55 0,55 0,55 C0,55 0,0 0,0 C0,0 56,0 56,0z"></path></g></g></g><g clip-path="url(#__lottie_element_31)" transform="matrix(1,0,0,1,0,0)" opacity="1" style="display: block;"><g transform="matrix(1,0,0,1,35.040000915527344,42.70000076293945)" opacity="1" style="display: block;"><g opacity="1" transform="matrix(1,0,0,1,0,0)"><path fill="rgb(0,0,0)" fill-opacity="0" d=" M4.28000020980835,0 C4.28000020980835,0 0,0.7099999785423279 0,0.7099999785423279"></path></g></g><g transform="matrix(1,0,0,1,35.040000915527344,42.70000076293945)" opacity="1" style="display: block;"><g opacity="1" transform="matrix(1,0,0,1,0,0)"><path stroke-linecap="round" stroke-linejoin="miter" fill-opacity="0" stroke-miterlimit="4" stroke="rgb(253,215,34)" stroke-opacity="1" stroke-width="1.5" d=" M4.28000020980835,0 C4.28000020980835,0 0,0.7099999785423279 0,0.7099999785423279"></path></g></g><g transform="matrix(1,0,0,1,0,0)" opacity="1" style="display: block;"><g opacity="1" transform="matrix(1,0,0,1,0,0)"><path fill="rgb(0,0,0)" fill-opacity="0" d=" M56,0 C56,0 56,55 56,55 C56,55 0,55 0,55 C0,55 0,0 0,0 C0,0 56,0 56,0z"></path></g></g></g><g clip-path="url(#__lottie_element_35)" transform="matrix(1,0,0,1,0,0)" opacity="1" style="display: block;"><g transform="matrix(1,0,0,1,35.04999923706055,45.54999923706055)" opacity="1" style="display: block;"><g opacity="1" transform="matrix(1,0,0,1,0,0)"><path fill="rgb(0,0,0)" fill-opacity="0" d=" M0,0 C0,0 4.28000020980835,0.7099999785423279 4.28000020980835,0.7099999785423279"></path></g></g><g transform="matrix(1,0,0,1,35.04999923706055,45.54999923706055)" opacity="1" style="display: block;"><g opacity="1" transform="matrix(1,0,0,1,0,0)"><path stroke-linecap="round" stroke-linejoin="miter" fill-opacity="0" stroke-miterlimit="4" stroke="rgb(253,215,34)" stroke-opacity="1" stroke-width="1.5" d=" M0,0 C0,0 4.28000020980835,0.7099999785423279 4.28000020980835,0.7099999785423279"></path></g></g><g transform="matrix(1,0,0,1,0,0)" opacity="1" style="display: block;"><g opacity="1" transform="matrix(1,0,0,1,0,0)"><path fill="rgb(0,0,0)" fill-opacity="0" d=" M56,0 C56,0 56,55 56,55 C56,55 0,55 0,55 C0,55 0,0 0,0 C0,0 56,0 56,0z"></path></g></g></g><g clip-path="url(#__lottie_element_39)" transform="matrix(1,0,0,1,0,0)" opacity="1" style="display: block;"><g transform="matrix(1,0,0,1,16.5,42.70000076293945)" opacity="1" style="display: block;"><g opacity="1" transform="matrix(1,0,0,1,0,0)"><path fill="rgb(0,0,0)" fill-opacity="0" d=" M0,0 C0,0 4.28000020980835,0.7099999785423279 4.28000020980835,0.7099999785423279"></path></g></g><g transform="matrix(1,0,0,1,16.5,42.70000076293945)" opacity="1" style="display: block;"><g opacity="1" transform="matrix(1,0,0,1,0,0)"><path stroke-linecap="round" stroke-linejoin="miter" fill-opacity="0" stroke-miterlimit="4" stroke="rgb(253,215,34)" stroke-opacity="1" stroke-width="1.5" d=" M0,0 C0,0 4.28000020980835,0.7099999785423279 4.28000020980835,0.7099999785423279"></path></g></g><g transform="matrix(1,0,0,1,0,0)" opacity="1" style="display: block;"><g opacity="1" transform="matrix(1,0,0,1,0,0)"><path fill="rgb(0,0,0)" fill-opacity="0" d=" M56,0 C56,0 56,55 56,55 C56,55 0,55 0,55 C0,55 0,0 0,0 C0,0 56,0 56,0z"></path></g></g></g><g clip-path="url(#__lottie_element_43)" transform="matrix(1,0,0,1,0,0)" opacity="1" style="display: block;"><g transform="matrix(1,0,0,1,16.5,45.54999923706055)" opacity="1" style="display: block;"><g opacity="1" transform="matrix(1,0,0,1,0,0)"><path fill="rgb(0,0,0)" fill-opacity="0" d=" M4.28000020980835,0 C4.28000020980835,0 0,0.7099999785423279 0,0.7099999785423279"></path></g></g><g transform="matrix(1,0,0,1,16.5,45.54999923706055)" opacity="1" style="display: block;"><g opacity="1" transform="matrix(1,0,0,1,0,0)"><path stroke-linecap="round" stroke-linejoin="miter" fill-opacity="0" stroke-miterlimit="4" stroke="rgb(253,215,34)" stroke-opacity="1" stroke-width="1.5" d=" M4.28000020980835,0 C4.28000020980835,0 0,0.7099999785423279 0,0.7099999785423279"></path></g></g><g transform="matrix(1,0,0,1,0,0)" opacity="1" style="display: block;"><g opacity="1" transform="matrix(1,0,0,1,0,0)"><path fill="rgb(0,0,0)" fill-opacity="0" d=" M56,0 C56,0 56,55 56,55 C56,55 0,55 0,55 C0,55 0,0 0,0 C0,0 56,0 56,0z"></path></g></g></g><g clip-path="url(#__lottie_element_47)" transform="matrix(1,0,0,1,0,0)" opacity="1" style="display: block;"><g transform="matrix(1,0,0,1,2.5899999141693115,20.25)" opacity="1" style="display: block;"><g opacity="1" transform="matrix(1,0,0,1,0,0)"><path fill="rgb(0,0,0)" fill-opacity="0" d=" M18.53491973876953,0 C18.53491973876953,0 11.659860610961914,11.25 11.659860610961914,11.25 C11.659860610961914,11.25 1.6288739442825317,27.664199829101562 1.6288739442825317,27.664199829101562 C0,30.329599380493164 1.9182868003845215,33.75 5.042033672332764,33.75 C5.042033672332764,33.75 45.777957916259766,33.75 45.777957916259766,33.75 C48.90168380737305,33.75 50.81999969482422,30.329599380493164 49.19108581542969,27.664199829101562 C49.19108581542969,27.664199829101562 39.160099029541016,11.25 39.160099029541016,11.25 C39.160099029541016,11.25 32.285037994384766,0 32.285037994384766,0"></path></g></g><g transform="matrix(1,0,0,1,2.5899999141693115,20.25)" opacity="1" style="display: block;"><g opacity="1" transform="matrix(1,0,0,1,0,0)"><path stroke-linecap="round" stroke-linejoin="miter" fill-opacity="0" stroke-miterlimit="4" stroke="rgb(207,106,255)" stroke-opacity="1" stroke-width="1.5" d=" M18.53491973876953,0 C18.53491973876953,0 11.659860610961914,11.25 11.659860610961914,11.25 C11.659860610961914,11.25 1.6288739442825317,27.664199829101562 1.6288739442825317,27.664199829101562 C0,30.329599380493164 1.9182868003845215,33.75 5.042033672332764,33.75 C5.042033672332764,33.75 45.777957916259766,33.75 45.777957916259766,33.75 C48.90168380737305,33.75 50.81999969482422,30.329599380493164 49.19108581542969,27.664199829101562 C49.19108581542969,27.664199829101562 39.160099029541016,11.25 39.160099029541016,11.25 C39.160099029541016,11.25 32.285037994384766,0 32.285037994384766,0"></path></g></g><g transform="matrix(1,0,0,1,0,0)" opacity="1" style="display: block;"><g opacity="1" transform="matrix(1,0,0,1,0,0)"><path fill="rgb(0,0,0)" fill-opacity="0" d=" M56,0 C56,0 56,55 56,55 C56,55 0,55 0,55 C0,55 0,0 0,0 C0,0 56,0 56,0z"></path></g></g></g><g clip-path="url(#__lottie_element_51)" transform="matrix(1,0,0,1,0,0)" opacity="1" style="display: block;"><g transform="matrix(1,0,0,1,2.5799999237060547,1)" opacity="1" style="display: block;"><g opacity="1" transform="matrix(1,0,0,1,0,0)"><path fill="rgb(0,0,0)" fill-opacity="0" d=" M11.920948028564453,23 C11.920948028564453,23 1.6224151849746704,6.079792022705078 1.6224151849746704,6.079792022705078 C0,3.4142024517059326 1.9186242818832397,0 5.038974285125732,9.19999990856013e-7 C5.038974285125732,9.19999990856013e-7 45.801055908203125,0.000002989999984492897 45.801055908203125,0.000002989999984492897 C48.92133712768555,0.000002989999984492897 50.84000015258789,3.4142024517059326 49.217613220214844,6.079792022705078 C49.217613220214844,6.079792022705078 38.91904067993164,23 38.91904067993164,23"></path></g></g><g transform="matrix(1,0,0,1,2.5799999237060547,1)" opacity="1" style="display: block;"><g opacity="1" transform="matrix(1,0,0,1,0,0)"><path stroke-linecap="round" stroke-linejoin="miter" fill-opacity="0" stroke-miterlimit="4" stroke="rgb(207,106,255)" stroke-opacity="1" stroke-width="1.5" d=" M11.920948028564453,23 C11.920948028564453,23 1.6224151849746704,6.079792022705078 1.6224151849746704,6.079792022705078 C0,3.4142024517059326 1.9186242818832397,0 5.038974285125732,9.19999990856013e-7 C5.038974285125732,9.19999990856013e-7 45.801055908203125,0.000002989999984492897 45.801055908203125,0.000002989999984492897 C48.92133712768555,0.000002989999984492897 50.84000015258789,3.4142024517059326 49.217613220214844,6.079792022705078 C49.217613220214844,6.079792022705078 38.91904067993164,23 38.91904067993164,23"></path></g></g><g transform="matrix(1,0,0,1,0,0)" opacity="1" style="display: block;"><g opacity="1" transform="matrix(1,0,0,1,0,0)"><path fill="rgb(0,0,0)" fill-opacity="0" d=" M56,0 C56,0 56,55 56,55 C56,55 0,55 0,55 C0,55 0,0 0,0 C0,0 56,0 56,0z"></path></g></g></g><g clip-path="url(#__lottie_element_55)" transform="matrix(1,0,0,1,0,0)" opacity="1" style="display: block;"><g transform="matrix(1,0,0,1,19.719999313354492,8)" opacity="1" style="display: block;"><g opacity="1" transform="matrix(1,0,0,1,0,0)"><path fill="rgb(0,0,0)" fill-opacity="0" d=" M16.12847328186035,4.5457000732421875 C16.559999465942383,5.118100166320801 16.559999465942383,5.881899833679199 16.12847328186035,6.4542999267578125 C14.941402435302734,8.029199600219727 12.184636116027832,11 8.279999732971191,11 C4.375364303588867,11 1.6185977458953857,8.029199600219727 0.4315261244773865,6.4542999267578125 C0,5.881899833679199 0,5.118100166320801 0.4315261244773865,4.5457000732421875 C1.6185977458953857,2.9707999229431152 4.375364303588867,0 8.279999732971191,0 C12.184636116027832,0 14.941402435302734,2.9707999229431152 16.12847328186035,4.5457000732421875 C16.12847328186035,4.5457000732421875 16.12847328186035,4.5457000732421875 16.12847328186035,4.5457000732421875z"></path></g></g><g transform="matrix(1,0,0,1,19.719999313354492,8)" opacity="1" style="display: block;"><g opacity="1" transform="matrix(1,0,0,1,0,0)"><path stroke-linecap="round" stroke-linejoin="miter" fill-opacity="0" stroke-miterlimit="4" stroke="rgb(253,215,34)" stroke-opacity="1" stroke-width="1.5" d=" M16.12847328186035,4.5457000732421875 C16.559999465942383,5.118100166320801 16.559999465942383,5.881899833679199 16.12847328186035,6.4542999267578125 C14.941402435302734,8.029199600219727 12.184636116027832,11 8.279999732971191,11 C4.375364303588867,11 1.6185977458953857,8.029199600219727 0.4315261244773865,6.4542999267578125 C0,5.881899833679199 0,5.118100166320801 0.4315261244773865,4.5457000732421875 C1.6185977458953857,2.9707999229431152 4.375364303588867,0 8.279999732971191,0 C12.184636116027832,0 14.941402435302734,2.9707999229431152 16.12847328186035,4.5457000732421875 C16.12847328186035,4.5457000732421875 16.12847328186035,4.5457000732421875 16.12847328186035,4.5457000732421875z"></path></g></g><g transform="matrix(1,0,0,1,0,0)" opacity="1" style="display: block;"><g opacity="1" transform="matrix(1,0,0,1,0,0)"><path fill="rgb(0,0,0)" fill-opacity="0" d=" M56,0 C56,0 56,55 56,55 C56,55 0,55 0,55 C0,55 0,0 0,0 C0,0 56,0 56,0z"></path></g></g></g><g clip-path="url(#__lottie_element_59)" transform="matrix(1,0,0,1,0,0)" opacity="1" style="display: block;"><g transform="matrix(1,0,0,1,25.5,11)" opacity="1" style="display: block;"><g opacity="1" transform="matrix(1,0,0,1,0,0)"><path fill="rgb(0,0,0)" fill-opacity="0" d=" M2.5,5 C3.875,5 5,3.875 5,2.5 C5,1.125 3.875,0 2.5,0 C1.125,0 0,1.125 0,2.5 C0,3.875 1.125,5 2.5,5z"></path></g></g><g transform="matrix(1,0,0,1,25.5,11)" opacity="1" style="display: block;"><g opacity="1" transform="matrix(1,0,0,1,0,0)"><path stroke-linecap="round" stroke-linejoin="miter" fill-opacity="0" stroke-miterlimit="4" stroke="rgb(253,215,34)" stroke-opacity="1" stroke-width="1.5" d=" M2.5,5 C3.875,5 5,3.875 5,2.5 C5,1.125 3.875,0 2.5,0 C1.125,0 0,1.125 0,2.5 C0,3.875 1.125,5 2.5,5z"></path></g></g><g transform="matrix(1,0,0,1,0,0)" opacity="1" style="display: block;"><g opacity="1" transform="matrix(1,0,0,1,0,0)"><path fill="rgb(0,0,0)" fill-opacity="0" d=" M56,0 C56,0 56,55 56,55 C56,55 0,55 0,55 C0,55 0,0 0,0 C0,0 56,0 56,0z"></path></g></g></g><g clip-path="url(#__lottie_element_63)" transform="matrix(1,0,0,1,0,0)" opacity="1" style="display: block;"><g transform="matrix(1,0,0,1,12.5600004196167,1)" opacity="1" style="display: block;"><g opacity="1" transform="matrix(1,0,0,1,0,0)"><path fill="rgb(0,0,0)" fill-opacity="0" d=" M0,0 C0,0 5.940000057220459,5.940000057220459 5.940000057220459,5.940000057220459"></path></g></g><g transform="matrix(1,0,0,1,12.5600004196167,1)" opacity="1" style="display: block;"><g opacity="1" transform="matrix(1,0,0,1,0,0)"><path stroke-linecap="round" stroke-linejoin="miter" fill-opacity="0" stroke-miterlimit="4" stroke="rgb(207,106,255)" stroke-opacity="1" stroke-width="1.5" d=" M0,0 C0,0 5.940000057220459,5.940000057220459 5.940000057220459,5.940000057220459"></path></g></g><g transform="matrix(1,0,0,1,0,0)" opacity="1" style="display: block;"><g opacity="1" transform="matrix(1,0,0,1,0,0)"><path fill="rgb(0,0,0)" fill-opacity="0" d=" M56,0 C56,0 56,55 56,55 C56,55 0,55 0,55 C0,55 0,0 0,0 C0,0 56,0 56,0z"></path></g></g></g><g clip-path="url(#__lottie_element_67)" transform="matrix(1,0,0,1,0,0)" opacity="1" style="display: block;"><g transform="matrix(-0.7071067690849304,0.7071067690849304,-0.7071067690849304,-0.7071067690849304,43.442169189453125,1.0113136768341064)" opacity="1" style="display: block;"><g opacity="1" transform="matrix(1,0,0,1,0,0)"><path fill="rgb(0,0,0)" fill-opacity="0" d=" M0,0 C0,0 8.399999618530273,0 8.399999618530273,0"></path></g></g><g transform="matrix(-0.7071067690849304,0.7071067690849304,-0.7071067690849304,-0.7071067690849304,43.442169189453125,1.0113136768341064)" opacity="1" style="display: block;"><g opacity="1" transform="matrix(1,0,0,1,0,0)"><path stroke-linecap="round" stroke-linejoin="miter" fill-opacity="0" stroke-miterlimit="4" stroke="rgb(207,106,255)" stroke-opacity="1" stroke-width="-1.5" d=" M0,0 C0,0 8.399999618530273,0 8.399999618530273,0"></path></g></g><g transform="matrix(1,0,0,1,0,0)" opacity="1" style="display: block;"><g opacity="1" transform="matrix(1,0,0,1,0,0)"><path fill="rgb(0,0,0)" fill-opacity="0" d=" M56,0 C56,0 56,55 56,55 C56,55 0,55 0,55 C0,55 0,0 0,0 C0,0 56,0 56,0z"></path></g></g></g><g clip-path="url(#__lottie_element_71)" transform="matrix(1,0,0,1,0,0)" opacity="1" style="display: block;"><g transform="matrix(1,0,0,1,28,1.75)" opacity="1" style="display: block;"><g opacity="1" transform="matrix(1,0,0,1,0,0)"><path fill="rgb(0,0,0)" fill-opacity="0" d=" M0,0 C0,0 0,2.5 0,2.5"></path></g></g><g transform="matrix(1,0,0,1,28,1.75)" opacity="1" style="display: block;"><g opacity="1" transform="matrix(1,0,0,1,0,0)"><path stroke-linecap="round" stroke-linejoin="miter" fill-opacity="0" stroke-miterlimit="4" stroke="rgb(207,106,255)" stroke-opacity="1" stroke-width="1.5" d=" M0,0 C0,0 0,2.5 0,2.5"></path></g></g><g transform="matrix(1,0,0,1,0,0)" opacity="1" style="display: block;"><g opacity="1" transform="matrix(1,0,0,1,0,0)"><path fill="rgb(0,0,0)" fill-opacity="0" d=" M56,0 C56,0 56,55 56,55 C56,55 0,55 0,55 C0,55 0,0 0,0 C0,0 56,0 56,0z"></path></g></g></g><g clip-path="url(#__lottie_element_75)" transform="matrix(1,0,0,1,0,0)" opacity="1" style="display: block;"><g transform="matrix(1,0,0,1,28,22.75)" opacity="1" style="display: block;"><g opacity="1" transform="matrix(1,0,0,1,0,0)"><path fill="rgb(0,0,0)" fill-opacity="0" d=" M0,0 C0,0 0,2.5 0,2.5"></path></g></g><g transform="matrix(1,0,0,1,28,22.75)" opacity="1" style="display: block;"><g opacity="1" transform="matrix(1,0,0,1,0,0)"><path stroke-linecap="round" stroke-linejoin="miter" fill-opacity="0" stroke-miterlimit="4" stroke="rgb(207,106,255)" stroke-opacity="1" stroke-width="1.5" d=" M0,0 C0,0 0,2.5 0,2.5"></path></g></g><g transform="matrix(1,0,0,1,0,0)" opacity="1" style="display: block;"><g opacity="1" transform="matrix(1,0,0,1,0,0)"><path fill="rgb(0,0,0)" fill-opacity="0" d=" M56,0 C56,0 56,55 56,55 C56,55 0,55 0,55 C0,55 0,0 0,0 C0,0 56,0 56,0z"></path></g></g></g><g clip-path="url(#__lottie_element_79)" transform="matrix(1,0,0,1,0,0)" opacity="1" style="display: block;"><g transform="matrix(1,0,0,1,40.5,13)" opacity="1" style="display: block;"><g opacity="1" transform="matrix(1,0,0,1,0,0)"><path fill="rgb(0,0,0)" fill-opacity="0" d=" M0,0 C0,0 7.5,0 7.5,0"></path></g></g><g transform="matrix(1,0,0,1,40.5,13)" opacity="1" style="display: block;"><g opacity="1" transform="matrix(1,0,0,1,0,0)"><path stroke-linecap="round" stroke-linejoin="miter" fill-opacity="0" stroke-miterlimit="4" stroke="rgb(207,106,255)" stroke-opacity="1" stroke-width="1.5" d=" M0,0 C0,0 7.5,0 7.5,0"></path></g></g><g transform="matrix(1,0,0,1,0,0)" opacity="1" style="display: block;"><g opacity="1" transform="matrix(1,0,0,1,0,0)"><path fill="rgb(0,0,0)" fill-opacity="0" d=" M56,0 C56,0 56,55 56,55 C56,55 0,55 0,55 C0,55 0,0 0,0 C0,0 56,0 56,0z"></path></g></g></g><g clip-path="url(#__lottie_element_83)" transform="matrix(1,0,0,1,0,0)" opacity="1" style="display: block;"><g transform="matrix(1,0,0,1,8,13)" opacity="1" style="display: block;"><g opacity="1" transform="matrix(1,0,0,1,0,0)"><path fill="rgb(0,0,0)" fill-opacity="0" d=" M0,0 C0,0 7.5,0 7.5,0"></path></g></g><g transform="matrix(1,0,0,1,8,13)" opacity="1" style="display: block;"><g opacity="1" transform="matrix(1,0,0,1,0,0)"><path stroke-linecap="round" stroke-linejoin="miter" fill-opacity="0" stroke-miterlimit="4" stroke="rgb(207,106,255)" stroke-opacity="1" stroke-width="1.5" d=" M0,0 C0,0 7.5,0 7.5,0"></path></g></g><g transform="matrix(1,0,0,1,0,0)" opacity="1" style="display: block;"><g opacity="1" transform="matrix(1,0,0,1,0,0)"><path fill="rgb(0,0,0)" fill-opacity="0" d=" M56,0 C56,0 56,55 56,55 C56,55 0,55 0,55 C0,55 0,0 0,0 C0,0 56,0 56,0z"></path></g></g></g></g></g></g></svg>